<svg xmlns="http://www.w3.org/2000/svg" viewBox="0 0 89.29 68.62"><defs><style>.cls-1{fill:#fff;}.cls-2{fill:#ee7458;}</style></defs><title>Fichier 5</title><g id="Calque_2" data-name="Calque 2"><g id="Vf_1" data-name="Vf 1"><path class="cls-1" d="M32.11,12.18H21.48a.78.78,0,0,0-.78.78V48a.78.78,0,0,0,.78.78H32.11a.78.78,0,0,0,.77-.78V13A.78.78,0,0,0,32.11,12.18ZM26.79,39a2.1,2.1,0,1,1,2.1-2.1A2.1,2.1,0,0,1,26.79,39Zm3.66-6.1H23.14V14.62h7.31Z"/><path class="cls-1" d="M46.72,12.18H36.1a.78.78,0,0,0-.78.78V48a.78.78,0,0,0,.78.78H46.72a.78.78,0,0,0,.79-.78V13A.78.78,0,0,0,46.72,12.18ZM41.41,39a2.1,2.1,0,1,1,2.1-2.1A2.1,2.1,0,0,1,41.41,39Zm3.66-6.1H37.76V14.62h7.31Z"/><path class="cls-2" d="M62.13.78A.78.78,0,0,0,61.35,0H50.72a.78.78,0,0,0-.78.78v35a.77.77,0,0,0,.78.78h7.53l0-8.76,3.92,4.07ZM56,26.82a2.1,2.1,0,1,1,2.1-2.1A2.09,2.09,0,0,1,56,26.82Zm3.65-6.11H52.38V2.44h7.31Z"/><path class="cls-1" d="M77.87,51.5H11.42V10.58a1.16,1.16,0,0,1,1.16-1.16H47.51v.65H12.58a.51.51,0,0,0-.51.51V50.85H77.22V10.58a.51.51,0,0,0-.52-.51H64.63V9.42H76.7a1.17,1.17,0,0,1,1.17,1.16Z"/><path class="cls-1" d="M88.29,62.41,81.2,54.83V8.65a2.56,2.56,0,0,0-2.56-2.56h-14V8.53H77.3A1.46,1.46,0,0,1,78.76,10v42.4H10.53V10A1.45,1.45,0,0,1,12,8.53H47.5V6.09H10.65A2.55,2.55,0,0,0,8.09,8.65V54.83L1,62.41a3.69,3.69,0,0,0,2.69,6.21h81.9A3.69,3.69,0,0,0,88.29,62.41Zm-65.92-7.6H29.8l14.84,0,14.85,0,7.43,0,7.42.06-7.42.05-7.43,0L44.64,55l-14.84,0-7.43,0L15,54.87Zm49,8.54-8.9.06-17.81,0-17.8-.05-8.9-.06L9,63.24l8.91-.1,8.9-.06,17.8,0,17.81,0,8.9.06,8.91.11Z"/><polygon class="cls-1" points="71.32 42.07 58.67 28.93 58.75 47.17 63.25 42.66 65.71 48.74 67.42 48.04 64.95 41.97 71.32 42.07"/></g></g></svg>