<svg xmlns="http://www.w3.org/2000/svg" viewBox="0 0 277.66 206.91"><defs><style>.cls-1{font-size:96.32px;font-family:starblack;}.cls-1,.cls-2{fill:#45a794;}.cls-3,.cls-4{fill:#ee7458;}.cls-4{font-size:13.91px;font-family:BebasKai, Bebas Kai;}.cls-5{letter-spacing:-0.01em;}.cls-6{letter-spacing:-0.02em;}.cls-7{letter-spacing:-0.01em;}.cls-8{letter-spacing:-0.02em;}.cls-9{letter-spacing:0em;}</style></defs><title>Fichier 2</title><g id="Calque_2" data-name="Calque 2"><g id="Vf_1" data-name="Vf 1"><text class="cls-1" transform="translate(0 182.22)">T A H I R Y</text><path class="cls-2" d="M120.57,17.74H105.1A1.13,1.13,0,0,0,104,18.88v51A1.13,1.13,0,0,0,105.1,71h15.47a1.13,1.13,0,0,0,1.13-1.13v-51A1.13,1.13,0,0,0,120.57,17.74ZM112.83,56.8a3.06,3.06,0,1,1,3.06-3.06A3.07,3.07,0,0,1,112.83,56.8Zm5.33-8.89H107.51V21.29h10.65Z"/><path class="cls-2" d="M141.86,17.74H126.39a1.14,1.14,0,0,0-1.14,1.14v51A1.14,1.14,0,0,0,126.39,71h15.47A1.14,1.14,0,0,0,143,69.84v-51A1.14,1.14,0,0,0,141.86,17.74ZM134.13,56.8a3.06,3.06,0,1,1,3.05-3.06A3.06,3.06,0,0,1,134.13,56.8Zm5.32-8.89H128.8V21.29h10.65Z"/><path class="cls-3" d="M164.29,1.13A1.14,1.14,0,0,0,163.15,0H147.68a1.13,1.13,0,0,0-1.13,1.13v51a1.13,1.13,0,0,0,1.13,1.14h11l-.06-12.76,5.71,5.93Zm-8.87,37.92A3.06,3.06,0,1,1,158.48,36,3.05,3.05,0,0,1,155.42,39.05Zm5.32-8.89H150.09V3.55h10.65Z"/><path class="cls-2" d="M187.21,75H90.45V15.41a1.69,1.69,0,0,1,1.69-1.69H143v.94H92.14a.76.76,0,0,0-.75.75V74.05h94.88V15.41a.76.76,0,0,0-.75-.75H167.94v-.94h17.58a1.69,1.69,0,0,1,1.69,1.69Z"/><path class="cls-2" d="M202.38,90.88l-10.32-11V12.6a3.73,3.73,0,0,0-3.72-3.73H167.91v3.55h18.47a2.12,2.12,0,0,1,2.13,2.12V76.29H89.15V14.54a2.12,2.12,0,0,1,2.12-2.12H143V8.87H89.32A3.73,3.73,0,0,0,85.6,12.6V79.84l-10.32,11a5.37,5.37,0,0,0,3.92,9H198.46A5.37,5.37,0,0,0,202.38,90.88Zm-96-11.06,10.81,0,21.62-.05,21.62.05,10.81,0,10.82.08L171.26,80l-10.81,0-21.62,0-21.62,0L106.4,80,95.58,79.9Zm71.32,12.42-13,.09-25.93.07-25.93-.07-13-.09-13-.15,13-.15,13-.09,25.93-.07,25.93.07,13,.09,13,.15Z"/><polygon class="cls-2" points="177.68 61.26 159.25 42.14 159.37 68.7 165.92 62.13 169.51 70.97 172 69.96 168.41 61.12 177.68 61.26"/><text class="cls-4" transform="translate(8.4 200.08)"><tspan class="cls-5">S</tspan><tspan class="cls-6" x="4.84" y="0" xml:space="preserve"> y</tspan><tspan class="cls-5" x="12.16" y="0" xml:space="preserve"> s</tspan><tspan class="cls-7" x="19.5" y="0" xml:space="preserve"> t</tspan><tspan x="26.65" y="0" xml:space="preserve"> è m e    d e    g e</tspan><tspan class="cls-5" x="102.28" y="0" xml:space="preserve"> s</tspan><tspan class="cls-7" x="109.62" y="0" xml:space="preserve"> t</tspan><tspan x="116.77" y="0" xml:space="preserve"> i o n    d ’</tspan><tspan class="cls-5" x="162.34" y="0" xml:space="preserve"> a</tspan><tspan x="170.48" y="0"> </tspan><tspan class="cls-8" x="173.12" y="0">r</tspan><tspan class="cls-9" x="178.86" y="0" xml:space="preserve"> c h i</tspan><tspan class="cls-5" x="201.8" y="0" xml:space="preserve"> v</tspan><tspan x="209.88" y="0" xml:space="preserve"> e</tspan><tspan class="cls-5" x="217.92" y="0" xml:space="preserve"> s</tspan></text></g></g></svg>